<?xml version="1.0" encoding="utf-8"?>
<!-- Generator: Adobe Illustrator 24.0.2, SVG Export Plug-In . SVG Version: 6.00 Build 0)  -->
<svg version="1.1" id="Layer_1" xmlns="http://www.w3.org/2000/svg" xmlns:xlink="http://www.w3.org/1999/xlink" x="0px" y="0px"
	 viewBox="0 0 107 50" style="enable-background:new 0 0 107 50;" xml:space="preserve">
<style type="text/css">
	.st0{fill:#56AB2F;}
</style>
<g>
	<path class="st0" d="M25.84,34.45c-3.67,2.52-8.78,3.85-14,1.62c-9.03-3.82-6.77-16.34-1.76-22.64C9.5,11.2,9.21,7.85,9.93,5.19
		c0.14-0.61,0.9-0.83,0.72,0.18c-0.4,2.27-0.07,4.9,0.29,6.84c3.89-5,9.29-7.24,14.97-6.59c14.04,1.58,8.93,18.9-5.9,16.74
		c-3.74-0.54-7.05-2.23-8.93-6.12c-1.3,1.69-7.2,16.27,2.16,19.15c3.85,1.15,8.5,0.61,12.06-1.51c3.13-1.84,4.39-4.18,5.9-7.27
		c0.29-0.61,0.79-0.36,0.43,0.36C30.09,30.13,28.9,32.29,25.84,34.45z M11.8,15.09c1.62,4.14,4.82,5.98,8.75,6.41
		c12.99,1.44,16.2-12.99,5.69-14.51C20.87,6.2,15.37,9.65,11.8,15.09z"/>
	<path class="st0" d="M38.84,33.63c-1.19,0.07-2.88-0.86-1.8-4.64c-0.58,0.94-1.55,2.38-2.59,3.38c-4.14,3.96-6.88-2.34-1.44-8.85
		c2.16-2.56,6.3-3.89,8.35-1.66c0.5,0.54,0.22,1.15-0.4,1.04c-0.4-1.33-1.73-1.62-3.06-0.9c-1.62,0.9-3.49,3.02-4.79,5.15
		c-0.29,0.5-1.26,2.27-1.48,3.64c-0.36,2.52,1.62,2.23,3.31,0.22c1.26-1.51,2.27-3.28,3.2-5.04c0.79-1.51,1.3-2.38,2.45-2.3
		c0.47,0.04,1.01,0.25,1.51,0.14c-0.76,0.76-2.88,4.54-3.35,6.73c-0.29,1.48-0.11,2.16,0.36,2.16c1.51,0.07,3.89-4.5,4.64-6.05
		c0.32-0.65,0.86-0.43,0.5,0.29C43.19,29.13,41,33.45,38.84,33.63z"/>
	<path class="st0" d="M45.75,26.61c-0.18,0.61-0.54,1.48-0.76,2.38c-1.08,4.32,1.8,4.93,3.71,2.27c1.19-1.69,2.2-3.64,2.66-4.57
		c0.32-0.61,0.86-0.54,0.54,0.18c-0.9,1.91-2.77,6.77-6.41,6.77c-4.03,0-2.3-4.93-1.69-7.09c1.12-4.03,3.38-9.21,5.47-12.71
		c2.56-4.28,6.44-3.78,3.85,1.98C51.47,19.52,49.28,23.4,45.75,26.61z M51.73,13.65c-1.76,2.48-4.57,8.93-5.69,11.81
		c2.56-2.59,5.15-6.84,6.55-10.19C53.31,13.61,53.67,10.88,51.73,13.65z"/>
	<path class="st0" d="M52.63,32.76c0.54,0.07,1.22-0.32,1.62-0.68c1.19-1.19,2.38-3.42,3.38-5.44c0.29-0.65,0.79-0.4,0.47,0.32
		c-0.94,2.02-2.99,6.59-5.65,6.59c-2.7,0-2.7-2.81-1.94-4.68l2.3-5.87c0.29-0.68-0.22-1.33-0.36-1.51l1.98-0.04
		c1.15,0,1.15,0.4,0.76,1.26l-2.88,6.73c0,0-0.36,0.79-0.43,1.04C51.55,31.68,51.62,32.69,52.63,32.76z M55.22,19.98
		c-0.83,0-1.37-0.65-1.26-1.48c0.14-0.83,0.94-1.48,1.73-1.48c0.83,0,1.4,0.65,1.26,1.48C56.8,19.33,56.05,19.98,55.22,19.98z"/>
	<path class="st0" d="M64.25,33.7c-1.26,0-2.99-0.86-1.91-4.21c0.29-0.94,0.97-2.16,1.98-3.78c0.86-1.4,0.22-2.38-2.56,0.22
		c-1.22,1.12-2.99,3.13-5.04,7.13c-0.25,0.5-0.58,0.54-1.33,0.54c-0.54,0.04-0.86,0-1.22,0.22c2.92-6.05,6.41-13.39,9.9-19.83
		c0.83-1.51,1.4-2.34,2.56-2.27c0.47,0.04,1.01,0.22,1.51,0.14c-1.58,1.62-6.26,10.44-9.21,16.45c0.97-1.22,1.94-2.34,2.92-3.17
		c1.73-1.55,5.44-3.82,6.66-3.38c0,0-3.85,6.77-4.32,9.29c-0.29,1.48,0.07,1.87,0.54,1.91c1.66,0.11,4.1-4.79,4.86-6.34
		c0.32-0.65,0.86-0.4,0.5,0.36C68.9,29.45,66.92,33.7,64.25,33.7z"/>
	<path class="st0" d="M70.84,32.76c0.54,0.07,1.22-0.32,1.62-0.68c1.19-1.19,2.38-3.42,3.38-5.44c0.29-0.65,0.79-0.4,0.47,0.32
		c-0.94,2.02-2.99,6.59-5.65,6.59c-2.7,0-2.7-2.81-1.94-4.68l2.3-5.87c0.29-0.68-0.22-1.33-0.36-1.51l1.98-0.04
		c1.15,0,1.15,0.4,0.76,1.26l-2.88,6.73c0,0-0.36,0.79-0.43,1.04C69.76,31.68,69.83,32.69,70.84,32.76z M73.43,19.98
		c-0.83,0-1.37-0.65-1.26-1.48c0.14-0.83,0.94-1.48,1.73-1.48c0.83,0,1.4,0.65,1.26,1.48C75.02,19.33,74.26,19.98,73.43,19.98z"/>
	<path class="st0" d="M84.95,33.99c-1.58,4.54-6.33,10.94-11.55,10.94c-2.27,0-3.38-0.9-3.38-2.77c0-1.76,1.4-3.13,3.13-4.14
		c3.53-2.09,6.8-2.77,9.58-3.89c0.43-1.26,0.68-2.56,0.83-4c0.14-1.4,0.14-2.56,0.04-2.95c-1.15,2.23-4.03,7.09-6.91,6.23
		c-3.6-1.55-1.44-6.73,1.22-9.9c2.12-2.56,5.65-3.78,8.35-1.66c1.26,1.04,0,2.12-0.4,1.04c-0.94-2.56-3.6-1.12-5.8,1.33
		c-2.63,2.95-4.64,7.31-2.77,8.13c2.12,0.9,5.62-4.61,6.3-6.88c0.5-1.66,1.66-1.01,2.23-1.44c0.47,2.88,0.29,5.9-0.47,8.75
		c0.86-0.61,1.8-1.37,2.52-2.34c1.19-1.58,1.73-3.13,2.09-3.82c0.32-0.65,0.9-0.43,0.54,0.29C88.66,30.71,87.62,32.73,84.95,33.99z
		 M81.1,35.6c-2.63,0.9-5.65,1.94-7.92,3.46c-2.34,1.55-3.64,5.15-0.65,5.15c1.55,0,3.67-1.22,4.54-1.87
		c1.12-0.9,2.23-2.2,3.24-3.53c0.86-1.22,1.55-2.41,2.05-3.64L81.1,35.6z"/>
	<path class="st0" d="M96.58,33.7c-1.26,0-2.99-0.86-1.91-4.21c0.29-0.94,0.97-2.16,1.98-3.78c0.86-1.4,0.22-2.38-2.56,0.22
		c-1.22,1.12-2.99,3.13-5.04,7.13c-0.25,0.5-0.58,0.54-1.33,0.54c-0.54,0.04-0.86,0-1.22,0.22c2.92-6.05,6.41-13.39,9.9-19.83
		c0.83-1.51,1.4-2.34,2.56-2.27c0.47,0.04,1.01,0.22,1.51,0.14c-1.58,1.62-6.26,10.44-9.21,16.45c0.97-1.22,1.94-2.34,2.92-3.17
		c1.73-1.55,5.44-3.82,6.66-3.38c0,0-3.85,6.77-4.32,9.29c-0.29,1.48,0.07,1.87,0.54,1.91c1.66,0.11,4.1-4.79,4.86-6.34
		c0.32-0.65,0.86-0.4,0.5,0.36C101.22,29.45,99.25,33.7,96.58,33.7z"/>
</g>
<g>
	<path class="st0" d="M27.11,43.53c-0.22,0.42-0.52,0.74-0.91,0.96c-0.39,0.22-0.84,0.34-1.34,0.36v-0.94
		c0.49-0.03,0.89-0.2,1.18-0.51s0.44-0.78,0.44-1.38v-5.89h0.97v5.92C27.44,42.62,27.33,43.12,27.11,43.53z"/>
	<path class="st0" d="M33.14,39.22v4.14H32.3l-0.06-0.79c-0.14,0.28-0.36,0.51-0.65,0.68c-0.29,0.18-0.62,0.27-0.98,0.27
		c-0.38,0-0.69-0.12-0.94-0.34c-0.24-0.23-0.37-0.53-0.38-0.9v-3.06h0.93v2.73c0.01,0.23,0.08,0.42,0.2,0.55
		c0.12,0.14,0.31,0.21,0.56,0.22c0.23,0,0.43-0.07,0.62-0.21c0.19-0.14,0.33-0.33,0.44-0.57s0.17-0.51,0.17-0.8v-1.93H33.14z"/>
	<path class="st0" d="M35.05,43.29c-0.28-0.11-0.5-0.26-0.67-0.47l0.4-0.54c0.17,0.16,0.34,0.28,0.52,0.37
		c0.18,0.09,0.37,0.13,0.54,0.13c0.22,0,0.4-0.04,0.54-0.13s0.21-0.22,0.21-0.4c0-0.14-0.04-0.25-0.13-0.34
		c-0.09-0.09-0.19-0.15-0.29-0.19s-0.29-0.1-0.56-0.18c-0.71-0.23-1.06-0.63-1.06-1.21c0-0.35,0.13-0.64,0.39-0.89
		c0.26-0.25,0.61-0.37,1.07-0.37c0.29,0,0.55,0.04,0.78,0.11c0.23,0.07,0.44,0.19,0.63,0.35l-0.37,0.57
		c-0.11-0.11-0.24-0.2-0.4-0.27c-0.16-0.07-0.32-0.1-0.46-0.11c-0.19,0-0.35,0.04-0.48,0.13s-0.2,0.21-0.2,0.37
		c0,0.13,0.04,0.23,0.13,0.31c0.09,0.08,0.18,0.14,0.27,0.18c0.09,0.04,0.28,0.1,0.55,0.18c0.34,0.11,0.61,0.26,0.8,0.44
		c0.19,0.18,0.28,0.42,0.28,0.73c0,0.4-0.14,0.73-0.42,0.99c-0.28,0.26-0.68,0.39-1.19,0.39C35.62,43.45,35.33,43.39,35.05,43.29z"
		/>
	<path class="st0" d="M40.18,37.4v1.83h1.13v0.74h-1.13v3.39h-0.94v-3.39h-0.76v-0.74h0.76V37.4H40.18z"/>
	<path class="st0" d="M46.95,39.6c0.2-0.17,0.4-0.31,0.63-0.4c0.22-0.09,0.41-0.14,0.58-0.15l-0.04,0.93
		c-0.3-0.01-0.57,0.05-0.81,0.18c-0.24,0.13-0.43,0.32-0.57,0.56c-0.14,0.24-0.2,0.49-0.2,0.75v1.89H45.6v-4.14h0.83l0.07,0.98
		C46.6,39.97,46.75,39.77,46.95,39.6z"/>
	<path class="st0" d="M52.13,42.3l0.43,0.69c-0.22,0.15-0.46,0.26-0.71,0.34c-0.26,0.08-0.5,0.13-0.75,0.13
		c-0.46,0-0.86-0.09-1.21-0.28c-0.34-0.19-0.61-0.45-0.79-0.79c-0.19-0.33-0.28-0.71-0.28-1.13c0-0.41,0.1-0.78,0.3-1.12
		c0.2-0.34,0.48-0.6,0.83-0.8c0.35-0.2,0.74-0.29,1.16-0.29c0.54,0,0.99,0.16,1.35,0.47s0.61,0.76,0.75,1.33L49.94,42
		c0.12,0.21,0.28,0.37,0.49,0.49c0.2,0.12,0.44,0.17,0.69,0.17C51.46,42.66,51.8,42.54,52.13,42.3z M50.11,40.19
		c-0.25,0.27-0.37,0.61-0.37,1.02c0,0.1,0,0.18,0.01,0.23l2.41-0.89c-0.1-0.23-0.24-0.41-0.42-0.55c-0.18-0.14-0.41-0.21-0.69-0.21
		C50.67,39.79,50.35,39.92,50.11,40.19z"/>
	<path class="st0" d="M55.31,35.61v7.75h-0.93v-7.75H55.31z"/>
	<path class="st0" d="M61.18,39.22v4.14h-0.93v-0.68c-0.15,0.19-0.36,0.37-0.64,0.54c-0.28,0.16-0.6,0.24-0.95,0.24
		c-0.39,0-0.75-0.08-1.06-0.25c-0.32-0.17-0.57-0.42-0.75-0.75c-0.18-0.33-0.27-0.72-0.27-1.17c0-0.45,0.09-0.85,0.28-1.18
		s0.45-0.6,0.77-0.78s0.68-0.27,1.08-0.27c0.35,0,0.66,0.08,0.92,0.23s0.47,0.35,0.63,0.6l0.07-0.66H61.18z M59.78,42.4
		c0.24-0.19,0.4-0.45,0.46-0.78v-0.82c-0.08-0.29-0.25-0.53-0.5-0.71c-0.25-0.18-0.54-0.28-0.87-0.28c-0.25,0-0.47,0.06-0.68,0.18
		s-0.38,0.29-0.5,0.5c-0.12,0.22-0.19,0.46-0.19,0.74c0,0.27,0.06,0.51,0.19,0.73c0.13,0.22,0.3,0.39,0.51,0.52s0.45,0.2,0.7,0.2
		C59.25,42.69,59.54,42.59,59.78,42.4z"/>
	<path class="st0" d="M65.33,43.36l-1.11-1.46l-1.04,1.46h-0.95l1.52-2.08l-1.57-2.06h1.16l1.09,1.44l0.93-1.44h0.94l-1.44,2.01
		l1.6,2.13H65.33z"/>
</g>
</svg>
